<svg width="53" height="52" viewBox="0 0 53 52" fill="none" xmlns="http://www.w3.org/2000/svg">
<path d="M10 6.53292V42.7378C10.0002 42.8163 10.0211 42.893 10.06 42.9583C10.0989 43.0236 10.1542 43.0745 10.2188 43.1048C10.2834 43.135 10.3545 43.1431 10.4232 43.1281C10.4919 43.1131 10.5552 43.0757 10.605 43.0206L27.4035 24.6363L10.605 6.2501C10.5552 6.19495 10.4919 6.15754 10.4232 6.14257C10.3545 6.1276 10.2834 6.13572 10.2188 6.16592C10.1542 6.19613 10.0989 6.24707 10.06 6.31236C10.0211 6.37764 10.0002 6.45437 10 6.53292Z" fill="#CC054D"/>
<path d="M34.447 17.0819L13.3838 4.05923L13.3707 4.05094C13.0079 3.82984 12.6631 4.38075 12.9602 4.70134L29.4714 22.4187L34.447 17.0819Z" fill="#CC054D"/>
<path d="M12.9618 44.5707C12.663 44.8913 13.0078 45.4422 13.3723 45.2211L13.3854 45.2128L34.4469 32.1902L29.4713 26.8516L12.9618 44.5707Z" fill="#CC054D"/>
<path d="M42.95 22.333L37.0681 18.6978L31.5376 24.6361L37.0681 30.5716L42.95 26.9392C44.55 25.947 44.55 23.3252 42.95 22.333Z" fill="#CC054D"/>
</svg>
