<svg width="46" height="46" viewBox="0 0 46 46" fill="none" xmlns="http://www.w3.org/2000/svg">
<g clip-path="url(#clip0_26_12)">
<path d="M14.6842 8.179C15.8736 8.179 17.309 8.4149 18.9903 8.88736C20.6873 9.35949 21.8134 9.59573 22.3687 9.59573C23.0826 9.59573 24.2483 9.32928 25.8661 8.79573C27.4835 8.26283 28.8877 7.99638 30.0771 7.99638C32.0285 7.99638 33.7654 8.49873 35.2881 9.50409C36.1441 10.0825 36.9935 10.8672 37.8336 11.8573C36.5647 12.8932 35.6369 13.8147 35.0502 14.6219C33.9877 16.0841 33.4564 17.699 33.4564 19.4654C33.4564 21.3997 34.0192 23.1437 35.1449 24.6975C36.2717 26.2507 37.5562 27.2333 39 27.6447C38.3967 29.5183 37.3975 31.477 36.002 33.5176C33.8923 36.5786 31.7984 38.109 29.7208 38.109C28.8959 38.109 27.7539 37.8588 26.2948 37.3552C24.8513 36.8515 23.6301 36.6013 22.6309 36.6013C21.6313 36.6013 20.4653 36.8612 19.1335 37.3779C17.8172 37.9108 16.7463 38.1772 15.9213 38.1772C13.4309 38.1772 10.9885 36.1529 8.59351 32.1009C6.19784 28.0944 5 24.1643 5 20.3109C5 16.7314 5.91191 13.8147 7.73608 11.5603C9.57581 9.30588 11.8913 8.179 14.6829 8.179M29.6731 -0.822754C29.7364 -0.624542 29.7763 -0.449076 29.7922 -0.29733C29.8078 -0.144609 29.8159 0.00746197 29.8159 0.159858C29.8159 1.13467 29.578 2.20112 29.1019 3.35887C28.6262 4.5163 27.873 5.59022 26.8416 6.5803C25.9537 7.41767 25.0733 7.98078 24.2009 8.27063C23.646 8.4383 22.8052 8.56762 21.6791 8.65893C21.7112 6.34375 22.3375 4.34051 23.559 2.65018C24.7961 0.959529 26.8345 -0.198224 29.6734 -0.822429" fill="#CC054D"/>
</g>
<defs>
<clipPath id="clip0_26_12">
<rect width="39" height="46" fill="white" transform="translate(2)"/>
</clipPath>
</defs>
</svg>
