<svg width="65" height="65" viewBox="0 0 65 65" fill="none" xmlns="http://www.w3.org/2000/svg">
<path d="M15.1667 0L10.8333 23.8333C10.2007 27.3217 18.5553 28.951 18.4167 32.5L17.3333 60.6667C17.1687 65 21.6667 65 21.6667 65C21.6667 65 26.1647 65 26 60.6667L24.9167 32.5C24.7823 28.9553 32.4263 27.3867 32.5 23.8333L28.1667 0H26L27.0833 17.3333L23.8333 19.5L22.75 0H20.5833L19.5 19.5L16.25 17.3333L17.3333 0H15.1667ZM52 0C48.8107 0 43.4893 2.83833 41.3617 7.09367C39.585 10.283 39 17.4113 39 21.6667V32.5C39 36.0447 43.7233 36.8333 45.5 36.8333L43.3333 60.6667C42.9433 64.9827 47.6667 65 47.6667 65C47.6667 65 52 65 52 60.6667V0Z" fill="#ED004F"/>
</svg>
