<svg width="55" height="55" viewBox="0 0 55 55" fill="none" xmlns="http://www.w3.org/2000/svg">
<path d="M46.4583 46.4638V51.8751C46.4582 52.5384 46.2147 53.1787 45.7739 53.6744C45.3331 54.1701 44.7257 54.4868 44.0669 54.5645L43.75 54.5834H11.25C10.5317 54.5834 9.84283 54.2981 9.33492 53.7902C8.82701 53.2823 8.54167 52.5934 8.54167 51.8751V46.4747C8.54167 45.7564 8.82701 45.0675 9.33492 44.5596C9.84283 44.0517 10.5317 43.7663 11.25 43.7663L43.75 43.7555C44.4683 43.7555 45.1572 44.0408 45.6651 44.5488C46.173 45.0567 46.4583 45.7455 46.4583 46.4638ZM27.5 0.416748C30.0787 0.416257 32.604 1.15207 34.7788 2.53767C36.9536 3.92327 38.6876 5.90104 39.7769 8.23842L39.9394 8.60946L40.3077 8.58508C43.2823 8.45051 46.2183 9.30013 48.6614 11.0024C51.1045 12.7047 52.9183 15.1648 53.8223 18.002L53.9929 18.5788C54.8248 21.6495 54.549 24.9151 53.2138 27.8028C51.8787 30.6904 49.5695 33.0158 46.6912 34.3711L46.4556 34.4713V38.3388C46.4556 39.0571 46.1703 39.746 45.6624 40.2539C45.1545 40.7618 44.4656 41.0472 43.7473 41.0472L11.2473 41.058C10.5839 41.0579 9.94367 40.8144 9.44795 40.3736C8.95223 39.9328 8.63553 39.3253 8.55792 38.6665L8.53896 38.3497V34.4686L8.20583 34.3197C6.53928 33.5176 5.05469 32.3826 3.84361 30.9848C2.63253 29.5869 1.72064 27.9558 1.16417 26.192L0.990833 25.588C0.437336 23.5032 0.389877 21.3163 0.852408 19.2095C1.31494 17.1026 2.27407 15.1367 3.64996 13.4755C5.02585 11.8142 6.77868 10.5057 8.76251 9.65884C10.7463 8.81197 12.9038 8.45126 15.0552 8.60675L15.234 8.22217C16.2804 5.98408 17.9193 4.07494 19.973 2.70149C22.0268 1.32804 24.4171 0.54262 26.8852 0.43029L27.5 0.416748Z" fill="#ED004F"/>
</svg>
