<svg width="18" height="24" viewBox="0 0 18 24" fill="none" xmlns="http://www.w3.org/2000/svg">
<path d="M8.182 0.00399564C7.81267 0.013329 7.446 0.0449956 7.082 0.0989956C6.542 0.152996 6.002 0.423996 5.407 0.693996C4.65 1.018 3.892 1.343 3.189 1.397C1.999 1.775 1.621 2.316 1.297 2.748C1.297 2.802 1.243 2.856 1.243 2.856C0.81 3.721 0.756 4.586 0.918 5.451C1.08 5.992 1.296 6.48 1.458 6.966C1.838 7.994 2.216 8.966 2.378 10.102C2.541 10.427 2.702 10.859 2.81 11.292C3.08 12.157 3.352 13.13 4.163 13.887L4.169 13.884C4.186 13.903 4.199 13.924 4.217 13.941L4.238 13.931L4.218 13.347C4.866 12.373 5.784 11.724 7.082 11.454C7.602 11.344 8.163 11.304 8.745 11.326C9.35086 11.3425 9.95339 11.4216 10.543 11.562C12.003 11.94 13.138 12.698 13.193 13.347C13.22 13.701 13.233 14.042 13.225 14.383C13.2243 14.447 13.222 14.5113 13.218 14.576L13.354 14.644C13.4359 14.5967 13.5062 14.5318 13.56 14.454L13.563 14.451L13.569 14.443C13.609 14.389 13.644 14.319 13.679 14.249C13.699 14.212 13.717 14.163 13.735 14.12C13.94 13.658 14.097 12.967 14.273 12.157C14.327 11.887 14.383 11.67 14.436 11.454C14.869 10.481 15.463 9.616 16.058 8.804C17.031 7.454 17.95 6.209 17.842 4.749C16.058 1.288 13.57 0.746996 12.272 0.476996C12.056 0.422996 11.949 0.422996 11.787 0.368996C10.449 0.124996 9.293 -0.0270044 8.182 0.00399564ZM13.225 14.383C13.2305 14.055 13.2198 13.7269 13.193 13.4C13.139 12.697 12.003 11.94 10.489 11.562C9.91622 11.4295 9.33238 11.3505 8.745 11.326C8.22347 11.3089 7.70171 11.3518 7.19 11.454C5.946 11.724 4.974 12.374 4.379 13.346L4.43 14.777C5.097 14.422 6.163 13.903 7.57 13.777C7.635 13.772 7.706 13.772 7.774 13.768C7.891 13.755 8.04 13.724 8.218 13.724C9.825 13.724 11.486 14.258 13.095 15.372C13.133 15.0973 13.1563 14.823 13.165 14.549L13.21 14.572C13.212 14.509 13.224 14.445 13.225 14.382V14.383ZM8.181 0.0579956C8.305 0.0539956 8.435 0.0679956 8.56 0.0689956C8.33 0.0669956 8.101 0.072329 7.873 0.0849956C7.976 0.0789956 8.078 0.0609956 8.181 0.0579956ZM7.365 0.129996C7.289 0.138996 7.212 0.142996 7.136 0.153996C6.319 0.270996 5.362 0.854996 4.386 1.199C4.741 1.067 5.1 0.902996 5.461 0.748996C6.001 0.478996 6.596 0.207996 7.082 0.153996C7.176 0.139996 7.271 0.140996 7.365 0.129996ZM7.136 0.369996C7.298 0.369996 7.515 0.369996 7.677 0.423996C7.55561 0.396338 7.43013 0.39159 7.307 0.409996C7.41492 0.418307 7.52122 0.441181 7.623 0.477996C8.203 1.478 7.197 5.757 6.944 8.627C7.07636 9.53726 7.23074 10.4442 7.407 11.347C6.704 9.56299 6.001 6.426 5.892 3.993C5.838 3.02 5.893 2.154 6.11 1.506C6.325 0.854996 6.65 0.422996 7.135 0.368996L7.136 0.369996ZM10.272 0.639996C9.462 2.75 9.354 6.75 9.3 7.994C9.246 8.534 9.3 9.724 9.354 10.589C9.354 10.805 9.408 11.021 9.408 11.238C9.408 11.021 9.354 10.859 9.354 10.643C8.921 7.39899 8.38 3.506 10.272 0.639996ZM13.624 1.02C13.354 3.182 12.219 4.21 11.841 6.32C11.733 7.996 11.516 9.942 11.462 11.618C11.408 9.942 11.462 8.158 11.732 6.373C12.002 4.535 12.597 2.696 13.624 1.02ZM3.454 1.65C3.67704 1.64788 3.89217 1.7325 4.054 1.886L4.04 1.879C4.173 1.971 4.306 2.088 4.433 2.263C4.229 3.231 4.688 5.295 4.473 6.933C4.549 8.481 4.544 10.113 5.322 11.392C4.342 9.882 4.146 7.955 4 6.156C3.887 5.066 3.796 4.059 3.536 3.253C3.392 2.948 3.267 2.678 3.152 2.431C3.128 2.394 3.108 2.352 3.082 2.317C2.98387 2.21527 2.92626 2.0812 2.92 1.94C2.92 1.886 2.973 1.778 3.028 1.778C3.082 1.724 3.189 1.722 3.243 1.668C3.31217 1.65461 3.38356 1.64858 3.454 1.65ZM2.106 2.263C2.046 2.283 2.014 2.304 1.966 2.324C2.143 2.29 2.328 2.358 2.486 2.642C2.298 3.534 2.922 6.011 2.914 7.746C3.227 9.594 3.464 11.596 4.486 12.861C3.296 11.51 2.81 9.131 2.432 7.13C2.107 5.562 1.836 4.21 1.296 3.778C1.242 3.67 1.188 3.615 1.188 3.507C1.188 3.345 1.188 3.128 1.296 2.912C1.019 3.546 0.891 4.179 0.926 4.813C0.884891 4.15812 1.01228 3.50364 1.296 2.912C1.296 2.858 1.35 2.858 1.35 2.804C1.362 2.788 1.381 2.769 1.394 2.753C1.4522 2.65366 1.52892 2.56642 1.62 2.496C1.675 2.435 1.716 2.376 1.779 2.314C1.726 2.37 1.691 2.424 1.645 2.479C1.672 2.461 1.697 2.442 1.729 2.427C1.77663 2.3745 1.83487 2.33273 1.89986 2.30445C1.96486 2.27618 2.03513 2.26205 2.106 2.263ZM1.729 2.427C1.725 2.434 1.721 2.437 1.717 2.445L1.754 2.415L1.729 2.427ZM16.489 3.561L16.484 3.576C16.522 3.571 16.559 3.559 16.597 3.561C16.56 3.559 16.521 3.571 16.482 3.581C15.619 6.223 14.595 8.865 13.571 11.507L13.569 11.51C13.482 11.975 13.335 12.394 13.029 12.7C13.462 12.213 13.515 11.509 13.569 10.644C13.623 9.833 13.623 8.968 14.056 8.102C14.056 8.049 14.057 7.997 14.109 7.943L14.11 7.941C14.207 7.588 14.312 7.252 14.427 6.923C14.845 5.633 15.567 3.757 16.44 3.583C16.456 3.577 16.474 3.564 16.49 3.561M5.299 16.21L4.975 16.318C5.137 16.535 5.245 16.698 5.353 16.751C5.46835 16.818 5.59864 16.8552 5.732 16.859C5.786 16.859 5.893 16.859 5.947 16.805L6.759 16.535C6.813 16.535 6.867 16.481 6.921 16.481C7.029 16.481 7.083 16.481 7.191 16.535L7.462 16.805L7.732 16.751C7.624 16.589 7.462 16.428 7.354 16.374C7.246 16.32 7.137 16.264 6.975 16.264H6.867L6.001 16.589H5.84C5.731 16.589 5.624 16.589 5.57 16.535C5.516 16.481 5.407 16.373 5.299 16.21ZM2.703 16.751C2.433 16.913 2.054 17.184 1.513 17.4C0.972 17.616 0.54 17.833 0.323 18.049C0.107667 18.265 0 18.4813 0 18.698C0 18.806 0.0539999 18.861 0.162 18.915C0.216 18.969 0.325 18.969 0.379 19.023C1.13316 19.3503 1.87255 19.7106 2.595 20.103C2.704 20.157 2.812 20.266 2.867 20.32C2.921 20.374 2.974 20.374 3.028 20.374C3.137 20.374 3.298 20.321 3.406 20.212C3.514 20.104 3.56833 19.9957 3.569 19.887C3.569 19.779 3.514 19.726 3.406 19.672C3.406 19.672 2.973 19.455 2.216 19.131C1.80932 18.9548 1.41271 18.7561 1.028 18.536C1.19 18.266 1.514 18.049 2.001 17.833C2.541 17.617 2.921 17.4 3.082 17.238C3.136 17.184 3.136 17.13 3.136 17.076C3.12331 16.9942 3.08558 16.9184 3.028 16.859C2.95373 16.792 2.85799 16.7537 2.758 16.751H2.703ZM13.95 16.751C13.8686 16.7639 13.7932 16.8016 13.734 16.859C13.68 16.967 13.625 17.022 13.625 17.076V17.13C13.787 17.292 14.005 17.4 14.329 17.508C14.599 17.562 14.869 17.671 15.14 17.725C15.464 17.833 15.6803 17.995 15.789 18.211V18.266C15.789 18.32 15.68 18.428 15.464 18.536C15.356 18.59 15.139 18.753 14.869 18.969C14.599 19.131 14.436 19.292 14.274 19.346C14.058 19.455 13.896 19.563 13.842 19.672C13.788 19.726 13.788 19.779 13.788 19.833C13.788 19.941 13.842 19.941 13.896 20.049C13.95 20.157 14.058 20.159 14.112 20.159C14.166 20.159 14.22 20.103 14.274 20.103C14.544 19.941 14.924 19.725 15.356 19.346C15.842 18.968 16.221 18.698 16.438 18.536C16.654 18.428 16.761 18.319 16.761 18.156C16.761 18.103 16.761 17.995 16.653 17.941C16.275 17.508 15.735 17.239 15.086 17.022C14.978 16.968 14.816 16.913 14.491 16.859C14.329 16.805 14.166 16.751 14.058 16.751H13.95ZM10.976 17.561C10.706 17.561 10.489 17.617 10.327 17.779C10.111 17.941 10.057 18.211 10.111 18.536C10.111 18.806 10.219 19.022 10.381 19.239C10.543 19.456 10.76 19.564 10.976 19.564C11.138 19.564 11.246 19.508 11.409 19.454C11.679 19.292 11.788 19.022 11.788 18.536C11.788 18.157 11.679 17.887 11.517 17.726C11.359 17.6146 11.1693 17.5561 10.976 17.561ZM6.488 17.616C6.218 17.616 6.002 17.671 5.84 17.833C5.623 17.995 5.57 18.265 5.624 18.59C5.624 18.86 5.731 19.076 5.894 19.292C6.057 19.508 6.272 19.618 6.488 19.618C6.651 19.618 6.759 19.562 6.921 19.508C7.191 19.346 7.299 19.076 7.299 18.59C7.299 18.157 7.191 17.887 7.029 17.78C6.87124 17.6688 6.68193 17.6114 6.489 17.616H6.488ZM6.488 18.266C6.651 18.266 6.759 18.374 6.759 18.536C6.759 18.698 6.596 18.806 6.489 18.806C6.326 18.806 6.219 18.698 6.219 18.536C6.219 18.374 6.326 18.266 6.489 18.266M10.869 18.32C11.031 18.32 11.14 18.427 11.14 18.59C11.14 18.698 11.031 18.86 10.87 18.86C10.707 18.86 10.6 18.752 10.6 18.59C10.6 18.428 10.706 18.32 10.869 18.32ZM8.167 20.428L8.329 20.752C8.38468 20.8542 8.45778 20.9459 8.545 21.023C8.599 21.077 8.708 21.185 8.815 21.185H8.924C9.032 21.185 9.085 21.185 9.139 21.131C9.193 21.077 9.303 21.077 9.357 21.023L9.518 20.861C9.572 20.807 9.626 20.752 9.626 20.698C9.68 20.644 9.68 20.59 9.734 20.536C9.734 20.482 9.788 20.428 9.788 20.428C9.734 20.536 9.626 20.644 9.572 20.752C9.464 20.806 9.411 20.915 9.302 20.915C9.195 20.969 9.086 20.969 8.978 20.969C8.87 20.969 8.762 20.969 8.708 20.915C8.6 20.915 8.545 20.861 8.491 20.807L8.329 20.644C8.275 20.59 8.221 20.482 8.167 20.428ZM7.301 21.456C6.165 21.456 5.463 22.97 3.841 21.618C3.409 24.268 6.599 24.484 7.951 23.348C8.871 22.538 8.599 21.402 7.301 21.456ZM10.167 21.456C8.87 21.402 8.599 22.538 9.519 23.349C10.87 24.484 14.059 24.267 13.627 21.618C12.005 22.97 11.357 21.456 10.167 21.456Z" fill="#ED004F"/>
</svg>
